<svg width="133" height="40" viewBox="0 0 133 40" fill="none" xmlns="http://www.w3.org/2000/svg">
<g clip-path="url(#clip0_1_206)">
<path fill-rule="evenodd" clip-rule="evenodd" d="M82.4242 31.2821C74.7319 36.97 63.5431 40.0001 53.8927 40.0001C40.3729 40.0001 28.2517 35.0118 19.021 26.7135C18.3217 26.061 18.9278 25.175 19.8134 25.6878C29.7435 31.4686 42.0047 34.9186 54.6852 34.9186C63.2167 34.9186 72.6339 33.1471 81.3052 29.4639C82.6102 28.9512 83.6828 30.3498 82.4241 31.2821H82.4242Z" fill="#FF9900"/>
<path fill-rule="evenodd" clip-rule="evenodd" d="M85.6412 27.5992C84.6624 26.3404 79.1143 26.9931 76.6436 27.3194C75.8976 27.4126 75.7577 26.76 76.457 26.2938C80.886 23.1702 88.1121 24.1026 88.9512 25.1282C89.7904 26.1539 88.7182 33.4261 84.5682 36.8765C83.9158 37.3892 83.3095 37.1095 83.5895 36.4102C84.5223 34.0792 86.6202 28.9041 85.6412 27.5992Z" fill="#FF9900"/>
<path fill-rule="evenodd" clip-rule="evenodd" d="M76.7832 4.38298V1.35191C76.7779 1.25256 76.7936 1.1532 76.8292 1.0603C76.8648 0.967401 76.9196 0.883032 76.99 0.812678C77.0603 0.742325 77.1447 0.687561 77.2376 0.651947C77.3305 0.616332 77.4298 0.600663 77.5292 0.605957H91.049C91.2526 0.601673 91.4496 0.677427 91.5978 0.816926C91.7461 0.956426 91.8336 1.14853 91.8417 1.35191V3.91603C91.8417 4.3356 91.4688 4.89475 90.816 5.82752L83.8231 15.8043C86.4339 15.7576 89.1848 16.1305 91.5154 17.4355C92.0282 17.7152 92.1679 18.1814 92.2147 18.601V21.8177C92.2147 22.284 91.7485 22.7965 91.236 22.517C87.0868 20.3258 81.539 20.0928 76.9703 22.5637C76.5041 22.7967 75.9916 22.3306 75.9916 21.8644V18.7878C75.9916 18.3216 75.9916 17.4828 76.5044 16.7366L84.6163 5.12823H77.5759C77.3725 5.13252 77.1755 5.05686 77.0273 4.91751C76.8791 4.77816 76.7915 4.58624 76.7832 4.38298ZM27.5059 23.1701H23.4034C23.2195 23.1515 23.0469 23.073 22.9121 22.9466C22.7773 22.8203 22.6878 22.6531 22.6574 22.4708V1.39858C22.6655 1.19522 22.753 1.00314 22.9012 0.863643C23.0494 0.724148 23.2464 0.648377 23.4499 0.652624H27.2727C27.4618 0.655483 27.643 0.728723 27.7809 0.858034C27.9189 0.987346 28.0036 1.16344 28.0187 1.35191V4.10255H28.1119C29.0906 1.44525 31.0024 0.186525 33.5198 0.186525C36.0839 0.186525 37.7156 1.44525 38.8346 4.10255C39.8133 1.44525 42.098 0.186525 44.5225 0.186525C46.2475 0.186525 48.1123 0.885816 49.2778 2.51759C50.5828 4.28908 50.3035 6.85319 50.3035 9.13759V22.4709C50.2955 22.6743 50.2079 22.8664 50.0597 23.0059C49.9115 23.1454 49.7145 23.2211 49.511 23.2169H45.4546C45.035 23.1702 44.7086 22.844 44.7086 22.4709V11.282C44.7086 10.3962 44.8018 8.15844 44.6154 7.31929C44.2892 5.92071 43.4034 5.50113 42.1912 5.50113C41.656 5.51637 41.1369 5.68779 40.6979 5.99427C40.2588 6.30076 39.919 6.72894 39.7203 7.2261C39.3007 8.2983 39.3473 10.0699 39.3473 11.282V22.4709C39.3393 22.6743 39.2518 22.8664 39.1036 23.0059C38.9554 23.1454 38.7583 23.2211 38.5549 23.2169H34.4523C34.0327 23.1702 33.7064 22.844 33.7064 22.4709V11.282C33.7064 8.95092 34.0793 5.45447 31.1889 5.45447C28.2519 5.45447 28.3451 8.81106 28.3451 11.282V22.4709C28.3158 22.6703 28.214 22.8519 28.0591 22.9809C27.9043 23.11 27.7073 23.1773 27.5059 23.1702V23.1701ZM103.497 0.186525C109.604 0.186525 112.914 5.40794 112.914 12.0746C112.914 18.5082 109.278 23.6363 103.497 23.6363C97.5292 23.6363 94.2658 18.4149 94.2658 11.8881C94.2191 5.31461 97.5292 0.185957 103.497 0.185957V0.186525ZM103.497 4.52213C100.466 4.52213 100.28 8.67135 100.28 11.2355C100.28 13.7996 100.233 19.3007 103.45 19.3007C106.62 19.3007 106.807 14.8718 106.807 12.1678C106.807 10.3962 106.713 8.25177 106.201 6.57333C105.734 5.08142 104.802 4.52213 103.497 4.52213ZM120.793 23.1701H116.69C116.27 23.1234 115.944 22.7972 115.944 22.4241V1.30496C115.97 1.11245 116.064 0.935691 116.21 0.807204C116.355 0.678716 116.542 0.607149 116.737 0.605674H120.56C120.733 0.611786 120.9 0.674274 121.034 0.783656C121.169 0.893038 121.264 1.04334 121.306 1.21177V4.42851H121.399C122.564 1.53801 124.149 0.186099 126.993 0.186099C128.811 0.186099 130.629 0.838582 131.795 2.65702C132.867 4.33532 132.867 7.17915 132.867 9.2305V22.5172C132.839 22.7046 132.742 22.8751 132.596 22.9955C132.45 23.116 132.264 23.1781 132.075 23.1696H127.972C127.599 23.123 127.272 22.8434 127.226 22.5172V11.0489C127.226 8.71787 127.506 5.36099 124.662 5.36099C123.683 5.36099 122.75 6.01347 122.284 7.03929C121.725 8.34426 121.632 9.6034 121.632 11.0487V22.4245C121.606 22.6293 121.506 22.8177 121.352 22.9549C121.198 23.092 120.999 23.1686 120.792 23.1705L120.793 23.1701ZM66.0143 13.1003C66.0143 14.6854 66.061 16.0373 65.2683 17.4833C64.6159 18.6488 63.59 19.3481 62.4245 19.3481C60.8394 19.3481 59.9071 18.136 59.9071 16.3644C59.9071 12.8679 63.0306 12.2152 66.0143 12.2152V13.1003ZM70.1635 23.1235C70.0306 23.2395 69.8647 23.3109 69.6891 23.3276C69.5136 23.3443 69.3372 23.3056 69.1848 23.2167C67.8329 22.0979 67.5536 21.5384 66.8072 20.4661C64.5695 22.7498 62.9377 23.4498 60.0473 23.4498C56.5974 23.4498 53.8934 21.3052 53.8934 17.0628C53.8934 13.7062 55.7116 11.4685 58.2764 10.3495C60.5142 9.37078 63.6381 9.18397 66.0153 8.90426V8.39149C66.0153 7.41277 66.1085 6.24695 65.5025 5.4078C64.9898 4.66184 64.0573 4.3356 63.2188 4.3356C61.6337 4.3356 60.2351 5.12809 59.9088 6.80652C59.8156 7.17943 59.5825 7.55248 59.2095 7.55248L55.2468 7.13291C54.9205 7.03972 54.5475 6.80667 54.6407 6.29376C55.573 1.44525 59.9088 0 63.8248 0C65.8295 0 68.4401 0.512766 70.0252 2.05121C72.0299 3.91603 71.8434 6.43418 71.8434 9.13745V15.5244C71.8434 17.4359 72.6359 18.275 73.3818 19.3472C73.6615 19.7201 73.7081 20.1864 73.3818 20.4194C72.496 21.1187 71.0042 22.4241 70.1651 23.1234L70.1635 23.1235ZM12.1679 13.1003C12.1679 14.6854 12.2146 16.0373 11.422 17.4833C10.7695 18.6488 9.74366 19.3481 8.57813 19.3481C6.99302 19.3481 6.06068 18.136 6.06068 16.3644C6.06068 12.8679 9.18423 12.2152 12.1679 12.2152V13.1003ZM16.2705 23.1235C16.1376 23.2395 15.9717 23.3109 15.7961 23.3276C15.6205 23.3443 15.4441 23.3056 15.2917 23.2167C13.9398 22.0979 13.6605 21.5384 12.9142 20.4661C10.6764 22.7498 9.04465 23.4498 6.1543 23.4498C2.70437 23.4498 0.000396729 21.3052 0.000396729 17.0628C0.000396729 13.7062 1.81855 11.4685 4.38338 10.3495C6.62111 9.37078 9.74508 9.18397 12.1222 8.90426V8.39149C12.1222 7.41277 12.2154 6.24695 11.6095 5.4078C11.0967 4.66184 10.1642 4.3356 9.32579 4.3356C7.74068 4.3356 6.3421 5.12809 6.01572 6.80652C5.92252 7.17943 5.68948 7.55248 5.31643 7.55248L1.35373 7.13291C1.02749 7.03972 0.654439 6.80667 0.747631 6.29376C1.67997 1.44525 6.01572 0 9.93174 0C11.9364 0 14.5471 0.512766 16.1322 2.05121C18.1369 3.91603 17.9503 6.43418 17.9503 9.13745V15.5244C17.9503 17.4359 18.7428 18.275 19.4888 19.3472C19.7685 19.7201 19.815 20.1864 19.4888 20.4194C18.603 21.1187 17.1112 22.4241 16.272 23.1234L16.2705 23.1235Z" fill="black"/>
</g>
<defs>
<clipPath id="clip0_1_206">
<rect width="132.867" height="40" fill="white"/>
</clipPath>
</defs>
</svg>
