<svg width="28" height="28" viewBox="0 0 28 28" fill="none" xmlns="http://www.w3.org/2000/svg">
<path d="M21.8283 8.41175C21.7199 8.3024 21.5909 8.2156 21.4487 8.15637C21.3065 8.09714 21.154 8.06665 21 8.06665C20.846 8.06665 20.6935 8.09714 20.5513 8.15637C20.4092 8.2156 20.2801 8.3024 20.1717 8.41175L11.48 17.1151L7.82835 13.4517C7.71574 13.343 7.58281 13.2574 7.43714 13.2C7.29148 13.1426 7.13593 13.1145 6.97939 13.1172C6.82284 13.1199 6.66837 13.1534 6.52478 13.2158C6.38118 13.2782 6.25129 13.3683 6.14251 13.4809C6.03373 13.5935 5.9482 13.7265 5.8908 13.8721C5.83339 14.0178 5.80524 14.1733 5.80795 14.3299C5.81066 14.4864 5.84417 14.6409 5.90658 14.7845C5.96899 14.9281 6.05907 15.058 6.17168 15.1667L10.6517 19.6467C10.7601 19.7561 10.8892 19.8429 11.0313 19.9021C11.1735 19.9614 11.326 19.9918 11.48 19.9918C11.634 19.9918 11.7865 19.9614 11.9287 19.9021C12.0709 19.8429 12.1999 19.7561 12.3083 19.6467L21.8283 10.1267C21.9468 10.0175 22.0413 9.88491 22.1059 9.73732C22.1706 9.58974 22.2039 9.43037 22.2039 9.26925C22.2039 9.10813 22.1706 8.94876 22.1059 8.80117C22.0413 8.65359 21.9468 8.521 21.8283 8.41175Z" fill="#0D141C"/>
</svg>
