<svg width="200" height="180" viewBox="0 0 200 180" fill="none" xmlns="http://www.w3.org/2000/svg">
<path opacity="0.6" d="M167.914 0C179.145 0 184.761 0 189.051 2.1857C192.824 4.1083 195.892 7.1761 197.814 10.9494C200 15.2391 200 20.8546 200 32.0856V146.01C200 160.675 200 168.007 194.53 173.803C190.578 177.989 181.719 180.826 176.071 179.713C168.252 178.173 164.981 173.59 158.439 164.422C151.922 155.289 146.452 145.371 142.248 134.892C136.925 121.623 131.629 105.518 118.174 101.582C107.1 98.3609 95.9455 105.271 85.54 110.308C75.1078 115.346 60.8505 117.906 53.6014 108.712C40.7351 92.3595 67.5645 65.0508 54.8319 48.5885C46.8071 38.2101 30.4366 42.4771 18.7472 36.9438C6.51344 31.1267 -3.10986 14.5711 0.938752 1.42183C1.2061 0.553511 2.03332 0 2.94186 0H9.97163H43.614H97.3414H167.914Z" fill="#E1F0DA"/>
</svg>
