<svg width="218" height="218" viewBox="0 0 218 218" fill="none" xmlns="http://www.w3.org/2000/svg">
<path d="M164.772 144.969C166.126 143.614 166.952 141.732 166.952 139.7L166.982 82.8085C166.982 78.7448 163.688 75.451 159.625 75.451L102.46 75.2088C98.5658 75.2088 95.1027 78.6719 95.1027 82.5663C95.1027 84.5981 95.8738 86.3651 97.313 87.8044C98.7522 89.2436 100.519 90.0146 102.551 90.0146L141.579 90.1055L77.4811 154.204C74.6026 157.082 74.6026 161.801 77.4811 164.68C80.3595 167.558 85.0787 167.558 87.9572 164.68L152.055 100.582L152.055 139.7C152.055 141.732 152.826 143.499 154.265 144.939C155.705 146.378 157.472 147.149 159.504 147.149C161.535 147.149 163.333 146.408 164.772 144.969ZM162.229 142.365C161.456 143.137 160.404 143.655 159.261 143.697C158.076 143.697 157.056 143.187 156.294 142.425C155.532 141.664 155.107 140.559 155.022 139.458V92.7094L85.5955 162.136C83.987 163.745 81.2696 163.745 79.6611 162.136C78.0525 160.528 78.0525 157.81 79.6611 156.202L149.088 86.7749L102.369 86.8052C101.184 86.8052 100.164 86.2955 99.4022 85.5335C98.6402 84.7716 98.2152 83.6669 98.1305 82.5663C98.1305 80.3651 100.084 78.4121 102.369 78.3274L159.261 78.2971C161.632 78.2971 163.5 80.1655 163.5 82.536L163.5 139.458C163.5 140.559 163.001 141.592 162.229 142.365Z" fill="white"/>
</svg>
