<svg width="160" height="40" viewBox="0 0 160 40" fill="none" xmlns="http://www.w3.org/2000/svg">
<g clip-path="url(#clip0_1_213)">
<path d="M50.442 31.6515L52.3947 27.0875C54.5327 28.6708 57.3213 29.5088 60.1107 29.5088C62.156 29.5088 63.4573 28.7175 63.4573 27.5068C63.4107 24.1535 51.1393 26.7615 51.046 18.3308C50.9993 14.0462 54.8113 10.7395 60.204 10.7395C63.4107 10.7395 66.6187 11.5315 68.896 13.3482L67.0713 18.0095C64.976 16.6622 62.388 15.7228 59.9247 15.7228C58.2513 15.7228 57.1353 16.5142 57.1353 17.5395C57.182 20.8462 69.5473 19.0295 69.6867 27.0875C69.6867 31.4655 65.9673 34.5395 60.668 34.5395C56.764 34.5395 53.1853 33.6082 50.442 31.6515ZM128.194 25.4348C127.701 26.3106 126.984 27.0395 126.117 27.5468C125.249 28.054 124.262 28.3214 123.257 28.3215C120.125 28.3215 117.587 25.7775 117.587 22.6395C117.587 19.5015 120.125 16.9575 123.257 16.9575C124.262 16.9576 125.249 17.225 126.117 17.7322C126.984 18.2395 127.701 18.9684 128.194 19.8442L133.623 16.8308C131.589 13.1968 127.711 10.7395 123.257 10.7395C116.698 10.7395 111.381 16.0668 111.381 22.6395C111.381 29.2115 116.698 34.5395 123.257 34.5395C127.711 34.5395 131.589 32.0822 133.623 28.4482L128.194 25.4348ZM73.2093 34.0735H79.996V0.833496H73.21L73.2093 34.0735ZM137.05 0.833496V34.0735H143.837V24.1148L151.879 34.0735H160.553L150.327 22.2428L159.809 11.2035H151.507L143.837 20.3815V0.833496H137.05ZM100.905 11.2048V13.9068C99.7893 12.0435 97.0467 10.7395 94.1647 10.7395C88.2147 10.7395 83.52 16.0028 83.52 22.6162C83.52 29.2295 88.2147 34.5395 94.1647 34.5395C97.0467 34.5395 99.7893 33.2355 100.905 31.3722V34.0735H107.691V11.2048H100.905ZM100.905 25.4808C99.9287 27.1108 97.8833 28.3208 95.606 28.3208C92.4733 28.3208 89.9347 25.7775 89.9347 22.6395C89.9347 19.5015 92.4733 16.9575 95.606 16.9575C97.8833 16.9575 99.9287 18.2148 100.905 19.8908V25.4808Z" fill="black"/>
<path d="M14.6013 0.0986328C12.402 0.0986328 10.6193 1.8853 10.6193 4.08863C10.6188 4.61208 10.7214 5.13051 10.9212 5.61431C11.121 6.09812 11.4142 6.53783 11.784 6.90833C12.1537 7.27884 12.5929 7.57289 13.0763 7.77369C13.5597 7.97449 14.0779 8.07811 14.6013 8.07863H18.584V4.08863C18.5849 3.03142 18.1658 2.01714 17.4189 1.26889C16.6721 0.520642 15.6585 0.0996932 14.6013 0.0986328ZM14.6013 10.7386H3.982C1.78267 10.7386 0 12.5253 0 14.7293C0 16.9326 1.78267 18.7193 3.982 18.7193H14.602C16.8007 18.7193 18.584 16.9326 18.584 14.7293C18.584 12.5253 16.8007 10.7386 14.6013 10.7386Z" fill="#36C5F0"/>
<path d="M39.8227 14.7293C39.8227 12.5253 38.0393 10.7386 35.84 10.7386C33.6407 10.7386 31.858 12.5253 31.858 14.7293V18.7193H35.84C36.8972 18.7182 37.9107 18.2973 38.6576 17.549C39.4045 16.8008 39.8236 15.7865 39.8227 14.7293ZM29.2033 14.7293V4.08863C29.2042 3.03142 28.7851 2.01714 28.0383 1.26889C27.2914 0.520642 26.2779 0.0996932 25.2207 0.0986328C23.0213 0.0986328 21.2387 1.8853 21.2387 4.08863V14.7286C21.2387 16.9333 23.0213 18.72 25.2207 18.72C26.2779 18.7189 27.2914 18.298 28.0383 17.5497C28.7851 16.8015 29.2042 15.7865 29.2033 14.7293Z" fill="#2EB67D"/>
<path d="M25.2207 40.0001C26.2779 39.999 27.2914 39.5781 28.0383 38.8298C28.7851 38.0816 29.2042 37.0673 29.2033 36.0101C29.2042 34.9528 28.7851 33.9386 28.0383 33.1903C27.2914 32.4421 26.2779 32.0211 25.2207 32.0201H21.2387V36.0101C21.2387 38.2134 23.0213 40.0001 25.2207 40.0001ZM25.2207 29.3601H35.8407C38.0393 29.3601 39.8227 27.5734 39.8227 25.3694C39.8236 24.3122 39.4045 23.2979 38.6576 22.5497C37.9107 21.8014 36.8972 21.3805 35.84 21.3794H25.2207C23.0213 21.3794 21.2387 23.1661 21.2387 25.3694C21.2381 25.8928 21.3407 26.4113 21.5406 26.8951C21.7404 27.3789 22.0335 27.8186 22.4033 28.1891C22.7731 28.5596 23.2122 28.8536 23.6956 29.0544C24.179 29.2552 24.6972 29.3595 25.2207 29.3601Z" fill="#ECB22E"/>
<path d="M1.01872e-07 25.3694C-0.000525449 25.8928 0.102055 26.4113 0.301885 26.8951C0.501715 27.3789 0.794881 27.8186 1.16464 28.1891C1.53441 28.5596 1.97353 28.8536 2.45693 29.0544C2.94033 29.2552 3.45855 29.3589 3.982 29.3594C5.03921 29.3583 6.05272 28.9374 6.79959 28.1891C7.54647 27.4409 7.96555 26.4266 7.96467 25.3694V21.3794H3.982C1.78267 21.3794 1.01872e-07 23.1661 1.01872e-07 25.3694ZM10.6193 25.3694V36.0094C10.6193 38.2134 12.402 40.0001 14.6013 40.0001C15.6585 39.999 16.6721 39.5781 17.4189 38.8298C18.1658 38.0816 18.5849 37.0673 18.584 36.0101V25.3694C18.5845 24.8459 18.4819 24.3274 18.2821 23.8436C18.0822 23.3597 17.789 22.92 17.4191 22.5495C17.0493 22.1789 16.6101 21.8849 16.1266 21.6842C15.6431 21.4834 15.1248 21.3798 14.6013 21.3794C12.402 21.3794 10.6193 23.1661 10.6193 25.3694Z" fill="#E01E5A"/>
</g>
<defs>
<clipPath id="clip0_1_213">
<rect width="160" height="40" fill="white"/>
</clipPath>
</defs>
</svg>
