<svg width="400" height="450" viewBox="0 0 400 450" fill="none" xmlns="http://www.w3.org/2000/svg">
<g filter="url(#filter0_d_1_350)">
<rect width="398.933" height="450" rx="20" fill="#E1F0DA" fill-opacity="0.2"/>
<path opacity="0.6" d="M368 0C379.201 0 384.801 0 389.079 2.17987C392.843 4.09734 395.902 7.15695 397.82 10.9202C400 15.1984 400 20.799 400 32V145.62C400 160.246 400 167.559 394.544 173.339C390.603 177.514 381.768 180.343 376.135 179.234C368.337 177.698 365.074 173.126 358.55 163.984C352.05 154.875 346.594 144.983 342.402 134.532C337.093 121.298 331.811 105.237 318.392 101.311C307.347 98.0984 296.223 104.99 285.845 110.014C275.441 115.038 261.221 117.592 253.992 108.422C241.16 92.1131 267.917 64.8773 255.219 48.4589C247.215 38.1082 230.889 42.3638 219.23 36.8452C207.029 31.0437 197.432 14.5323 201.469 1.41803C201.736 0.552034 202.561 0 203.467 0H210.478H244.031H297.615H368Z" fill="#E1F0DA"/>
<path opacity="0.6" d="M0 417.999C0 429.2 0 434.8 2.17987 439.079C4.09734 442.842 7.15695 445.902 10.9202 447.819C15.1984 449.999 20.799 449.999 32 449.999H140.425C155.267 449.999 162.688 449.999 168.42 444.753C172.59 440.938 175.56 432.424 174.668 426.843C173.441 419.17 168.929 415.586 159.904 408.418C150.628 401.051 140.473 394.905 129.7 390.256C116.942 384.749 101.457 379.27 97.6723 365.351C94.5754 353.895 101.219 342.356 106.063 331.592C110.907 320.8 113.369 306.051 104.528 298.552C88.805 285.242 62.5473 312.997 46.7186 299.825C36.7396 291.523 40.8424 274.588 35.522 262.496C29.9425 249.871 14.0883 239.934 1.46013 244.043C0.562174 244.335 0 245.201 0 246.146L0 253.418L0 288.22L0 343.8L0 417.999Z" fill="#E1F0DA"/>
</g>
<defs>
<filter id="filter0_d_1_350" x="-50" y="-46" width="500" height="550" filterUnits="userSpaceOnUse" color-interpolation-filters="sRGB">
<feFlood flood-opacity="0" result="BackgroundImageFix"/>
<feColorMatrix in="SourceAlpha" type="matrix" values="0 0 0 0 0 0 0 0 0 0 0 0 0 0 0 0 0 0 127 0" result="hardAlpha"/>
<feOffset dy="4"/>
<feGaussianBlur stdDeviation="25"/>
<feComposite in2="hardAlpha" operator="out"/>
<feColorMatrix type="matrix" values="0 0 0 0 0 0 0 0 0 0 0 0 0 0 0 0 0 0 0.1 0"/>
<feBlend mode="normal" in2="BackgroundImageFix" result="effect1_dropShadow_1_350"/>
<feBlend mode="normal" in="SourceGraphic" in2="effect1_dropShadow_1_350" result="shape"/>
</filter>
</defs>
</svg>
