<svg width="24" height="23" viewBox="0 0 24 23" fill="none" xmlns="http://www.w3.org/2000/svg">
<g clip-path="url(#clip0_0_16)">
<path d="M12.5876 19.3915C12.2257 19.1722 11.772 19.1722 11.4102 19.3915L5.86042 22.7553C5.00023 23.2766 3.93684 22.5052 4.16541 21.5257L5.63673 15.2204C5.73232 14.8107 5.59372 14.3818 5.27652 14.1056L0.391516 9.85149C-0.365165 9.19254 0.0416147 7.94789 1.0414 7.86299L7.47912 7.3163C7.89834 7.2807 8.26354 7.01631 8.42826 6.62917L10.9547 0.691204C11.3469 -0.230402 12.6531 -0.230401 13.0453 0.691205L15.5717 6.62917C15.7365 7.01631 16.1017 7.2807 16.5209 7.3163L22.9586 7.86299C23.9584 7.94789 24.3652 9.19254 23.6085 9.85149L18.7235 14.1056C18.4063 14.3818 18.2677 14.8107 18.3633 15.2204L19.8347 21.5261C20.0632 22.5056 19 23.277 18.1398 22.7558L12.5876 19.3915Z" fill="#FFC500"/>
</g>
<defs>
<clipPath id="clip0_0_16">
<rect width="23.434" height="22.4575" fill="white" transform="scale(1.02415)"/>
</clipPath>
</defs>
</svg>
