<svg width="152" height="40" viewBox="0 0 152 40" fill="none" xmlns="http://www.w3.org/2000/svg">
<g clip-path="url(#clip0_1_219)">
<path d="M111.288 2.86539C111.288 1.28371 112.603 0 114.225 0H148.098C149.721 0 151.036 1.28371 151.036 2.86539V37.1351C151.036 38.7173 149.721 40 148.098 40H114.225C112.603 40 111.288 38.7173 111.288 37.1357V2.86539Z" fill="#006699"/>
<path d="M0.0206299 33.5058H16.6086V28.0593H6.02472V7.2824H0.0206299V33.5058ZM25.007 33.5058V15.4437H19.0034V33.5058H25.007ZM22.0057 12.978C24.0989 12.978 25.402 11.591 25.402 9.85664C25.3632 8.08452 24.0989 6.73682 22.0456 6.73682C19.9918 6.73682 18.6488 8.08505 18.6488 9.85664C18.6488 11.591 19.9519 12.978 21.9664 12.978H22.0057ZM27.7942 33.5058H33.7978V23.4187C33.7978 22.8789 33.8366 22.3391 33.9956 21.9545C34.4289 20.8759 35.4167 19.7585 37.0755 19.7585C39.2484 19.7585 40.1177 21.4152 40.1177 23.8421V33.5053H46.1202V23.149C46.1202 17.6008 43.1583 15.0193 39.208 15.0193C35.9696 15.0193 34.5474 16.8297 33.7574 18.063H33.7978V15.4437H27.7942C27.8734 17.1387 27.7942 33.5058 27.7942 33.5058ZM54.5899 7.2824H48.5864V33.5058H54.5899V27.6496L56.0903 25.7605L60.7908 33.5058H68.1761L60.2777 22.2934L67.1888 14.6657H59.9619C59.9619 14.6657 55.0248 21.4897 54.5899 22.2997V7.2824Z" fill="black"/>
<path d="M84.2306 25.9718C84.3098 25.508 84.4283 24.6183 84.4283 23.6121C84.4283 18.9431 82.0582 14.2028 75.818 14.2028C69.143 14.2028 66.062 19.4819 66.062 24.27C66.062 30.1917 69.8144 33.8896 76.3704 33.8896C78.9777 33.8896 81.3862 33.5056 83.3618 32.6961L82.5718 28.7312C80.9518 29.2684 79.293 29.5375 77.2397 29.5375C74.4357 29.5375 71.9874 28.386 71.7896 25.9329L84.2306 25.9707V25.9718ZM71.7502 21.9103C71.9081 20.369 72.9358 18.0948 75.5027 18.0948C78.2275 18.0948 78.8602 20.5227 78.8602 21.9103H71.7502ZM99.2468 7.28275V16.3605H99.1676C98.2983 15.0899 96.4816 14.2421 94.0737 14.2421C89.4519 14.2421 85.3842 17.9406 85.423 24.2589C85.423 30.1156 89.0968 33.93 93.6776 33.93C96.1663 33.93 98.5355 32.8504 99.7211 30.7698H99.8391L100.077 33.5061H105.408C105.33 32.2345 105.25 30.0385 105.25 27.8808V7.28223H99.2463L99.2468 7.28275ZM99.2468 25.1455C99.2468 25.6072 99.2075 26.0704 99.1277 26.4544C98.7736 28.1121 97.3514 29.2668 95.6134 29.2668C93.1257 29.2668 91.5058 27.2639 91.5058 24.1047C91.5058 21.1386 92.8891 18.7495 95.6533 18.7495C97.5093 18.7495 98.8125 20.0207 99.1681 21.5997C99.2468 21.9475 99.2468 22.3331 99.2468 22.6794V25.1455Z" fill="black"/>
<path d="M123.337 33.4838V15.4217H117.333V33.4838H123.337ZM120.336 12.9561C122.429 12.9561 123.732 11.569 123.732 9.83571C123.693 8.06308 122.429 6.71484 120.376 6.71484C118.321 6.71484 116.979 8.06308 116.979 9.83571C116.979 11.569 118.282 12.9561 120.297 12.9561H120.335H120.336ZM126.659 33.4838H132.663V23.3983C132.663 22.859 132.702 22.3187 132.86 21.9336C133.294 20.8545 134.282 19.7376 135.941 19.7376C138.113 19.7376 138.982 21.3938 138.982 23.8222V33.4838H144.985V23.1276C144.985 17.5799 142.024 14.9983 138.074 14.9983C134.835 14.9983 133.413 16.8082 132.623 18.041H132.663V15.4222H126.66C126.738 17.1167 126.659 33.4838 126.659 33.4838Z" fill="white"/>
</g>
<defs>
<clipPath id="clip0_1_219">
<rect width="151.057" height="40" fill="white"/>
</clipPath>
</defs>
</svg>
