<svg width="169" height="40" viewBox="0 0 169 40" fill="none" xmlns="http://www.w3.org/2000/svg">
<g clip-path="url(#clip0_1_224)">
<path d="M147.855 13.4656C148.793 13.4656 149.564 12.9783 149.668 12.3487L150.594 1.88355C150.594 0.849167 149.382 0 147.858 0C146.336 0 145.126 0.849163 145.126 1.88373L146.05 12.3487C146.152 12.9781 146.924 13.4656 147.858 13.4656H147.855ZM142.199 16.7344C142.669 15.9237 142.634 15.0126 142.138 14.6078L133.537 8.5738C132.642 8.05587 131.301 8.67929 130.54 9.99916C129.777 11.3173 129.912 12.7896 130.804 13.3077L140.329 17.7425C140.924 17.9632 141.736 17.5384 142.202 16.7282L142.199 16.7344ZM153.516 16.7288C153.986 17.5389 154.793 17.9639 155.389 17.743L164.914 13.3083C165.812 12.7903 165.939 11.3179 165.183 9.99972C164.418 8.68116 163.075 8.05643 162.183 8.57436L153.58 14.6083C153.088 15.0126 153.052 15.9245 153.519 16.735L153.516 16.7288ZM147.855 26.5383C148.793 26.5383 149.564 27.0215 149.668 27.6516L150.594 38.1153C150.594 39.1529 149.382 40.0002 147.858 40.0002C146.336 40.0002 145.126 39.1529 145.126 38.1153L146.05 27.6516C146.152 27.0215 146.924 26.5383 147.858 26.5383H147.855ZM153.516 23.2688C153.986 22.4564 154.793 22.0352 155.389 22.2585L164.914 26.6903C165.812 27.2088 165.939 28.6825 165.183 30.0018C164.418 31.316 163.075 31.9425 162.183 31.4253L153.58 25.3969C153.088 24.9895 153.052 24.077 153.519 23.2671H153.516M142.199 23.2676C142.669 24.077 142.634 24.9895 142.138 25.3976L133.537 31.4258C132.642 31.943 131.301 31.3166 130.54 30.0023C129.777 28.683 129.912 27.2093 130.804 26.6908L140.329 22.259C140.924 22.0357 141.736 22.4569 142.202 23.2695H142.199" fill="#FDBB30"/>
<path d="M93.5972 25.3777C93.5972 25.6988 93.5686 26.03 93.4807 26.3209C93.1159 27.5291 91.8649 28.5508 90.2999 28.5508C88.995 28.5508 87.9585 27.8096 87.9585 26.244C87.9585 23.8479 90.5958 23.1862 93.598 23.2029L93.5972 25.3775V25.3777ZM98.3061 21.202C98.3061 17.251 96.6178 13.7745 90.9134 13.7745C87.9852 13.7745 85.6612 14.5969 84.3927 15.33L85.3218 18.5063C86.4811 17.7744 88.3288 17.1685 90.0773 17.1685C92.9708 17.1605 93.4447 18.8071 93.4447 19.8609V20.1103C87.1374 20.101 83.1503 22.285 83.1503 26.7339C83.1503 29.4525 85.181 31.9987 88.711 31.9987C90.88 31.9987 92.6967 31.1329 93.7839 29.7447H93.8913C93.8913 29.7447 94.6107 32.7586 98.5822 31.6054C98.375 30.352 98.3068 29.0141 98.3068 27.4052L98.3063 21.202M0.0318604 8.39381C0.0318604 8.39381 4.15352 25.2826 4.81168 28.0236C5.57944 31.2229 6.96316 32.4006 10.9508 31.6054L13.5242 21.135C14.1768 18.533 14.6135 16.6778 15.034 14.0336H15.1072C15.4023 16.7058 15.8211 18.541 16.3581 21.1436C16.3581 21.1436 17.4052 25.8973 17.9424 28.3933C18.4801 30.8885 19.9768 32.4621 23.8832 31.6054L30.0155 8.39307H25.0658L22.9713 18.4294C22.4081 21.3496 21.8977 23.634 21.5037 26.3049H21.4337C21.0758 23.6575 20.62 21.4662 20.0481 18.6204L17.8692 8.39307H12.7111L10.3791 18.3625C9.71902 21.3929 9.10007 23.8388 8.70798 26.4208H8.63666C8.23411 23.9895 7.69825 20.9141 7.11832 17.9822C7.11832 17.9822 5.73385 10.8511 5.24691 8.39307L0.0318604 8.39381ZM39.3784 25.3777C39.3784 25.6988 39.3498 26.03 39.2606 26.3209C38.8965 27.5291 37.6448 28.5508 36.0797 28.5508C34.7746 28.5508 33.7397 27.8096 33.7397 26.244C33.7397 23.8479 36.3762 23.1862 39.3789 23.2029L39.3784 25.3775V25.3777ZM44.0867 21.202C44.0867 17.251 42.3984 13.7745 36.6951 13.7745C33.7662 13.7745 31.4403 14.5969 30.1725 15.33L31.1005 18.5063C32.2596 17.7744 34.1073 17.1685 35.8564 17.1685C38.752 17.1605 39.2258 18.8071 39.2258 19.8609V20.1103C32.9159 20.101 28.9307 22.285 28.9307 26.7339C28.9307 29.4525 30.9603 31.9987 34.4876 31.9987C36.6597 31.9987 38.4752 31.1329 39.5638 29.7447H39.6698C39.6698 29.7447 40.3913 32.7586 44.3619 31.6054C44.1543 30.352 44.0867 29.0141 44.0867 27.4052V21.202ZM51.9446 26.6781V8.39381H47.2302V31.6062H51.9446V26.6781ZM113.619 8.39381V25.5171C113.619 27.879 114.064 29.532 115.013 30.5436C115.845 31.4281 117.212 32.0005 118.851 32.0005C120.246 32.0005 121.617 31.7345 122.264 31.4945L122.203 27.8115C121.721 27.9291 121.169 28.0243 120.412 28.0243C118.806 28.0243 118.269 26.9952 118.269 24.8758V18.3241H122.374V13.8822H118.269V8.39381H113.619ZM101.45 14.1682V31.6062H106.313V22.6776C106.313 22.195 106.342 21.7745 106.419 21.3899C106.778 19.5187 108.209 18.3241 110.263 18.3241C110.826 18.3241 111.229 18.3853 111.666 18.4473V13.8822C111.299 13.8092 111.051 13.775 110.595 13.775C108.78 13.775 106.715 14.9461 105.848 17.4581H105.717V14.1682H101.45ZM55.2457 14.1682V31.6062H59.9839V21.3805C59.9839 20.9007 60.0403 20.3932 60.2064 19.9533C60.5991 18.9238 61.5573 17.718 63.0863 17.718C64.9991 17.718 65.8924 19.3344 65.8924 21.6671V31.6049H70.6268V21.2547C70.6268 20.7969 70.6894 20.245 70.8247 19.8413C71.2135 18.6695 72.2456 17.7167 73.6672 17.7167C75.6055 17.7167 76.5359 19.3047 76.5359 22.0505V31.6043H81.2735V21.3333C81.2735 15.9174 78.5232 13.7734 75.4182 13.7734C74.0444 13.7734 72.9588 14.1175 71.9771 14.719C71.1528 15.2269 70.4134 15.9465 69.7683 16.8924H69.6983C68.9496 15.0131 67.188 13.7743 64.8923 13.7743C61.9432 13.7743 60.6178 15.2693 59.8138 16.5371H59.7432V14.1677H55.2457" fill="#1A75CF"/>
<path d="M167.303 30.7585H167.375C167.47 30.7585 167.53 30.7193 167.53 30.6611C167.53 30.5948 167.473 30.5588 167.385 30.5588C167.355 30.5588 167.324 30.5649 167.303 30.5649V30.7602V30.7584L167.303 30.7585ZM167.292 31.2287H167.04V30.4081C167.097 30.3969 167.231 30.3769 167.401 30.3769C167.587 30.3769 167.67 30.403 167.731 30.4441C167.782 30.48 167.819 30.5412 167.819 30.6239C167.819 30.7081 167.742 30.7795 167.628 30.8106V30.8211C167.721 30.8459 167.772 30.9135 167.798 31.0321C167.824 31.1505 167.839 31.1988 167.855 31.2292H167.57C167.545 31.1988 167.53 31.1262 167.514 31.0537C167.498 30.9707 167.458 30.929 167.374 30.929H167.292L167.292 31.2287ZM167.396 30.1407C167.035 30.1407 166.762 30.4354 166.762 30.811C166.762 31.177 167.035 31.4755 167.406 31.4755C167.779 31.4817 168.052 31.1772 168.052 30.805C168.052 30.4346 167.779 30.1407 167.402 30.1407H167.396ZM167.413 29.918C167.917 29.918 168.319 30.3149 168.319 30.8048C168.319 31.3006 167.917 31.6981 167.406 31.6981C166.895 31.6981 166.488 31.3 166.488 30.805C166.488 30.3149 166.895 29.9182 167.406 29.9182H167.411" fill="#FDBB30"/>
</g>
<defs>
<clipPath id="clip0_1_224">
<rect width="168.35" height="40" fill="white"/>
</clipPath>
</defs>
</svg>
