<svg width="175" height="207" viewBox="0 0 175 207" fill="none" xmlns="http://www.w3.org/2000/svg">
<path opacity="0.6" d="M0 174.984C0 186.191 0 191.794 2.18096 196.074C4.09939 199.84 7.16053 202.901 10.9257 204.819C15.206 207 20.8094 207 32.016 207H140.496C155.345 207 162.77 207 168.505 201.752C172.676 197.934 175.647 189.416 174.755 183.832C173.528 176.156 169.013 172.57 159.984 165.399C150.703 158.028 140.543 151.878 129.765 147.227C117.001 141.718 101.508 136.236 97.7212 122.31C94.6227 110.848 101.27 99.3036 106.116 88.5339C110.963 77.7366 113.425 62.9802 104.58 55.4775C88.8495 42.1608 62.5786 69.9293 46.742 56.751C36.758 48.4454 40.8628 31.5019 35.5398 19.4033C29.9575 6.77242 14.0954 -3.1699 1.46086 0.94102C0.562455 1.23334 0 2.10003 0 3.0448L0 10.3206L0 45.1405L0 100.748L0 174.984Z" fill="#E1F0DA"/>
</svg>
