<svg width="34" height="34" viewBox="0 0 34 34" fill="none" xmlns="http://www.w3.org/2000/svg">
<g clip-path="url(#clip0_1_689)">
<path d="M16.2915 9.2084L9.20827 16.2917C8.78327 16.7167 8.78327 17.2833 9.20827 17.7083C9.63326 18.1333 10.1999 18.1333 10.6249 17.7083L16.0082 12.325L16.0082 24.0833C16.0082 24.6499 16.4332 25.0749 16.9999 25.0749C17.5665 25.0749 17.9915 24.6499 17.9915 24.0833L17.9915 12.325L23.3748 17.7083C23.7998 18.1333 24.3665 18.1333 24.7915 17.7083C25.2165 17.2833 25.2165 16.7167 24.7915 16.2917L17.7082 9.2084C17.2832 8.7834 16.7165 8.7834 16.2915 9.2084Z" fill="white"/>
</g>
<defs>
<clipPath id="clip0_1_689">
<rect width="24" height="24" fill="white" transform="translate(0 17) scale(1.00173) rotate(-45)"/>
</clipPath>
</defs>
</svg>
